Coordinates
version=1
nRows=31
nColumns=38
inDegrees=no

Units are S.I. units (second, meters, Newtons, ...)
If the header above contains a line with 'inDegrees', this indicates whether rotational values are in degrees (yes) or radians (no).

endheader
time	pelvis_tilt	pelvis_list	pelvis_rotation	pelvis_tx	pelvis_ty	pelvis_tz	hip_flexion_r	hip_adduction_r	hip_rotation_r	knee_angle_r	ankle_angle_r	subtalar_angle_r	mtp_angle_r	hip_flexion_l	hip_adduction_l	hip_rotation_l	knee_angle_l	ankle_angle_l	subtalar_angle_l	mtp_angle_l	lumbar_extension	lumbar_bending	lumbar_rotation	arm_flex_r	arm_add_r	arm_rot_r	elbow_flex_r	pro_sup_r	wrist_flex_r	wrist_dev_r	arm_flex_l	arm_add_l	arm_rot_l	elbow_flex_l	pro_sup_l	wrist_flex_l	wrist_dev_l
2.43	3.01597	1.35746	-1.27614	0.608148	1.46341	0.937399	0.194047	-0.0777502	-0.254413	0.56103	-0.234373	0	0	-0.463708	-0.172197	-0.204516	0.525781	-0.230031	0	0	-0.297174	0.101853	-0.237852	0.0979947	-0.332883	0.539068	0.749939	1.39816	0	0	-0.0278261	-0.281049	0.180608	0.984003	1.5708	0	0
2.44	2.98274	1.35434	-1.24787	0.6109	1.47519	0.938676	0.184602	-0.0641457	-0.251566	0.565562	-0.235901	0	0	-0.455595	-0.184717	-0.206842	0.565966	-0.248325	0	0	-0.295527	0.108018	-0.235567	0.096579	-0.331751	0.544125	0.745749	1.40136	0	0	-0.0430497	-0.276042	0.17159	0.981104	1.5708	0	0
2.45	2.94836	1.35	-1.22004	0.613855	1.48675	0.940157	0.173392	-0.0492669	-0.248004	0.568049	-0.235431	0	0	-0.445669	-0.197497	-0.208917	0.611046	-0.268863	0	0	-0.295378	0.114487	-0.231334	0.0955857	-0.331427	0.549834	0.743112	1.40284	0	0	-0.0572553	-0.27219	0.165226	0.977708	1.5708	0	0
2.46	2.91422	1.34477	-1.19327	0.616951	1.49813	0.941737	0.16011	-0.0337013	-0.24583	0.567665	-0.234912	0	0	-0.433583	-0.210613	-0.209724	0.660653	-0.290129	0	0	-0.296309	0.121063	-0.225973	0.0948334	-0.332136	0.556526	0.742499	1.4028	0	0	-0.07088	-0.269402	0.160678	0.974584	1.5708	0	0
2.47	2.88133	1.33946	-1.16676	0.62003	1.50943	0.943322	0.144469	-0.0181128	-0.247728	0.564001	-0.233248	0	0	-0.418547	-0.224027	-0.206748	0.713517	-0.311255	0	0	-0.296925	0.127621	-0.221346	0.0941307	-0.333558	0.56441	0.743451	1.40158	0	0	-0.0843159	-0.267692	0.157928	0.971373	1.5708	0	0
2.48	2.85293	1.33413	-1.14404	0.623003	1.52052	0.944842	0.126955	-0.00355989	-0.25206	0.558385	-0.229865	0	0	-0.400463	-0.236276	-0.199794	0.769691	-0.331161	0	0	-0.297778	0.133483	-0.217221	0.0935412	-0.335911	0.572803	0.746657	1.40054	0	0	-0.0972276	-0.267197	0.157083	0.968579	1.5708	0	0
2.49	2.82906	1.32914	-1.1255	0.625836	1.53129	0.946194	0.109129	0.00916415	-0.255977	0.55183	-0.225851	0	0	-0.379222	-0.246875	-0.190916	0.828236	-0.350838	0	0	-0.299042	0.138608	-0.213597	0.0938671	-0.339695	0.58298	0.752458	1.3992	0	0	-0.109689	-0.267481	0.156966	0.966701	1.5708	0	0
2.5	2.80964	1.32574	-1.11145	0.628593	1.54179	0.947274	0.0931885	0.0197678	-0.258739	0.547054	-0.220696	0	0	-0.354894	-0.25516	-0.181672	0.887246	-0.36462	0	0	-0.299471	0.142146	-0.210022	0.0946986	-0.343854	0.593187	0.759642	1.39735	0	0	-0.121594	-0.268492	0.157814	0.965211	1.5708	0	0
2.51	2.79086	1.32506	-1.09854	0.631306	1.55214	0.948016	0.0804033	0.0292532	-0.258452	0.543444	-0.212958	0	0	-0.327003	-0.261934	-0.173754	0.946524	-0.373248	0	0	-0.297564	0.144345	-0.205954	0.0958798	-0.348787	0.604298	0.768109	1.39382	0	0	-0.13291	-0.269801	0.159958	0.963261	1.5708	0	0
2.52	2.77939	1.32451	-1.09097	0.633598	1.56207	0.94877	0.0672571	0.0365783	-0.258294	0.539858	-0.204864	0	0	-0.29817	-0.266408	-0.162827	1.00577	-0.375792	0	0	-0.296643	0.145631	-0.202743	0.0978193	-0.35412	0.614402	0.777028	1.38938	0	0	-0.141811	-0.271341	0.16414	0.960134	1.5708	0	0
2.53	2.77726	1.32254	-1.0907	0.635518	1.57159	0.949792	0.0516354	0.0422907	-0.258823	0.53434	-0.198661	0	0	-0.270561	-0.268831	-0.149783	1.06356	-0.376619	0	0	-0.298884	0.146137	-0.200368	0.100534	-0.358772	0.621922	0.785615	1.38441	0	0	-0.148545	-0.272873	0.167924	0.957044	1.5708	0	0
2.54	2.78308	1.31957	-1.09628	0.637255	1.58086	0.951115	0.0336911	0.0466549	-0.26057	0.526494	-0.194957	0	0	-0.24355	-0.270064	-0.13667	1.11871	-0.378162	0	0	-0.303236	0.145598	-0.199034	0.103728	-0.361567	0.626535	0.792196	1.38001	0	0	-0.153708	-0.27455	0.171526	0.953218	1.5708	0	0
2.55	2.79145	1.31566	-1.1033	0.638925	1.58998	0.952639	0.0134345	0.0512116	-0.262568	0.515234	-0.192075	0	0	-0.217104	-0.271368	-0.12535	1.17173	-0.374154	0	0	-0.308895	0.145149	-0.198071	0.107485	-0.363939	0.630756	0.798119	1.37426	0	0	-0.1577	-0.277137	0.176778	0.948851	1.5708	0	0
2.56	2.89116	1.3145	-1.18981	0.634056	1.59836	0.954677	-0.0141368	0.0191725	-0.285629	0.511664	-0.18602	0	0	-0.195919	-0.22644	-0.085807	1.21681	-0.349121	0	0	-0.320205	0.132648	-0.209896	0.110904	-0.381038	0.635931	0.81492	1.36511	0	0	-0.153929	-0.269191	0.185493	0.936717	1.5708	0	0
2.57	2.81863	1.30482	-1.12779	0.642236	1.60786	0.956119	-0.0344362	0.0599319	-0.263563	0.486242	-0.188942	0	0	-0.171049	-0.270752	-0.107967	1.26052	-0.334208	0	0	-0.323916	0.142186	-0.194365	0.117865	-0.368562	0.642308	0.806463	1.35715	0	0	-0.164199	-0.28322	0.187083	0.940792	1.5708	0	0
2.58	2.83182	1.30013	-1.1404	0.644004	1.6168	0.957823	-0.0589983	0.06452	-0.26147	0.46948	-0.189311	0	0	-0.148532	-0.269488	-0.10228	1.29623	-0.313196	0	0	-0.330223	0.139563	-0.193182	0.124249	-0.368364	0.64715	0.806665	1.35364	0	0	-0.169542	-0.28563	0.187561	0.938195	1.5708	0	0
2.59	2.84798	1.29495	-1.15669	0.645767	1.62575	0.95952	-0.0848077	0.0682846	-0.2591	0.45245	-0.188746	0	0	-0.128055	-0.266855	-0.0983407	1.32684	-0.291247	0	0	-0.337265	0.135948	-0.192377	0.131513	-0.368112	0.653004	0.806657	1.35171	0	0	-0.176409	-0.288311	0.186064	0.9376	1.5708	0	0
2.6	2.86685	1.28992	-1.17627	0.647419	1.63468	0.961149	-0.110827	0.0706463	-0.255866	0.435268	-0.188175	0	0	-0.108536	-0.262733	-0.0961856	1.35222	-0.272543	0	0	-0.344365	0.131253	-0.192157	0.139827	-0.367916	0.660052	0.806072	1.3514	0	0	-0.184719	-0.29064	0.182198	0.938643	1.5708	0	0
2.61	2.88676	1.28581	-1.1956	0.648767	1.64355	0.962625	-0.13604	0.0714386	-0.256204	0.418236	-0.188051	0	0	-0.0879417	-0.2575	-0.0937602	1.37224	-0.258928	0	0	-0.350509	0.12631	-0.194361	0.149106	-0.367486	0.667711	0.804612	1.35231	0	0	-0.194129	-0.292586	0.17641	0.940848	1.5708	0	0
2.62	2.90382	1.28342	-1.2139	0.650214	1.65237	0.963882	-0.157697	0.070981	-0.26014	0.404217	-0.188456	0	0	-0.0664606	-0.251677	-0.0923878	1.38651	-0.249517	0	0	-0.354944	0.12078	-0.196039	0.159344	-0.366438	0.67563	0.802078	1.35396	0	0	-0.204581	-0.293925	0.168514	0.943777	1.5708	0	0
2.63	2.92058	1.28035	-1.23455	0.651869	1.66124	0.965113	-0.179154	0.0701029	-0.262938	0.391522	-0.188995	0	0	-0.0481678	-0.245411	-0.0927602	1.39405	-0.24237	0	0	-0.360051	0.114529	-0.196084	0.169886	-0.364818	0.682839	0.799185	1.35569	0	0	-0.216093	-0.294884	0.15891	0.947832	1.5708	0	0
2.64	2.93873	1.27718	-1.2574	0.653526	1.66989	0.96622	-0.199203	0.0680285	-0.265465	0.381576	-0.188955	0	0	-0.0308534	-0.239539	-0.0969131	1.39647	-0.236824	0	0	-0.365968	0.107518	-0.195816	0.180641	-0.362702	0.688325	0.796765	1.3562	0	0	-0.227578	-0.295827	0.148411	0.953098	1.5708	0	0
2.65	2.95703	1.27378	-1.2798	0.655027	1.67837	0.967225	-0.218889	0.0655537	-0.268629	0.372405	-0.188462	0	0	-0.0142102	-0.23457	-0.103675	1.39407	-0.232615	0	0	-0.372503	0.100621	-0.19597	0.191034	-0.360254	0.691478	0.795011	1.35468	0	0	-0.238569	-0.296597	0.137461	0.958961	1.5708	0	0
2.66	2.97323	1.26977	-1.30097	0.656511	1.68694	0.968152	-0.238896	0.0632283	-0.270788	0.363497	-0.188072	0	0	0.00016819	-0.23162	-0.114885	1.38655	-0.229053	0	0	-0.379311	0.0940745	-0.194913	0.200591	-0.357869	0.69279	0.793664	1.35185	0	0	-0.24919	-0.296837	0.1267	0.964654	1.5708	0	0
2.67	2.98844	1.26477	-1.32131	0.657947	1.69562	0.96902	-0.260501	0.061455	-0.271979	0.353372	-0.187744	0	0	0.0120209	-0.230244	-0.129828	1.37435	-0.226095	0	0	-0.386804	0.0877548	-0.192862	0.20919	-0.355946	0.692887	0.793175	1.34854	0	0	-0.259193	-0.297025	0.116636	0.970444	1.5708	0	0
2.68	3.00207	1.25937	-1.3398	0.659275	1.70432	0.969741	-0.282598	0.0602004	-0.272565	0.343096	-0.187103	0	0	0.0224245	-0.230328	-0.147377	1.35832	-0.223894	0	0	-0.394274	0.0820435	-0.189748	0.2165	-0.354972	0.691561	0.794066	1.34513	0	0	-0.267651	-0.297605	0.109066	0.97559	1.5708	0	0
2.69	3.01447	1.25223	-1.35695	0.660526	1.71301	0.970371	-0.30673	0.0596568	-0.272279	0.331928	-0.186545	0	0	0.0298833	-0.232452	-0.169064	1.33852	-0.223461	0	0	-0.403621	0.0769355	-0.186309	0.223089	-0.354327	0.688636	0.796592	1.34044	0	0	-0.27586	-0.298577	0.102191	0.981958	1.5708	0	0
2.7	3.02568	1.24425	-1.37346	0.661752	1.72178	0.970873	-0.331767	0.0592453	-0.270941	0.320441	-0.186141	0	0	0.034693	-0.236712	-0.196181	1.31473	-0.22569	0	0	-0.413813	0.0719273	-0.181988	0.228871	-0.35419	0.684999	0.800502	1.3351	0	0	-0.283912	-0.299408	0.0954418	0.98914	1.5708	0	0
2.71	3.03548	1.23576	-1.38843	0.662886	1.73055	0.971219	-0.357217	0.0591227	-0.268917	0.308479	-0.185971	0	0	0.0374617	-0.24244	-0.226919	1.28708	-0.230616	0	0	-0.424569	0.0672528	-0.177347	0.234226	-0.354602	0.681184	0.805518	1.32936	0	0	-0.291639	-0.299971	0.0884236	0.996983	1.5708	0	0
2.72	3.0448	1.22695	-1.40225	0.66388	1.73921	0.971421	-0.382227	0.0586582	-0.267169	0.297433	-0.186052	0	0	0.0381928	-0.247535	-0.25788	1.25497	-0.236954	0	0	-0.435942	0.0625457	-0.172725	0.239404	-0.355225	0.677437	0.810859	1.32303	0	0	-0.29891	-0.301061	0.0819796	1.00526	1.5708	0	0
2.73	3.05397	1.2185	-1.41516	0.664723	1.74775	0.971479	-0.405824	0.0576258	-0.265834	0.288066	-0.186043	0	0	0.0376056	-0.250384	-0.286234	1.21791	-0.24395	0	0	-0.447115	0.0579828	-0.168458	0.244774	-0.356127	0.674429	0.816238	1.31619	0	0	-0.305075	-0.302193	0.0763979	1.01296	1.5708	0	0
